<?xml version="1.0" encoding="UTF-8"?><svg id="Capa_2" xmlns="http://www.w3.org/2000/svg" viewBox="0 0 1235.6 260.05"><defs><style>.cls-1{fill:#ffb300;}.cls-2{fill:#00b3ff;}.cls-3{fill:#999;}.cls-4{fill:#ffa000;}.cls-5{fill:#ffca28;}</style></defs><g id="Capa_1-2"><g id="Capa_1-3"><path class="cls-2" d="m397.42,74.55v180.7h-23v-31c-9.7,11.8-20.7,20.8-32.8,26.8-12.1,6-25.4,9-39.8,9-25.6,0-47.4-9.3-65.5-27.8-18.1-18.7-27.2-41.3-27.2-67.9s9.1-48.3,27.4-66.8,40.3-27.8,66-27.8c14.8,0,28.3,3.2,40.3,9.5s22.6,15.8,31.6,28.4v-33.2h23v.1h0Zm-93.1,17.7c-13,0-24.9,3.2-35.9,9.6s-19.7,15.3-26.2,26.8-9.7,23.7-9.7,36.5,3.3,24.9,9.8,36.6c6.5,11.6,15.3,20.7,26.3,27.2s22.8,9.7,35.5,9.7,24.8-3.2,36.2-9.6,20.2-15.1,26.3-26.1c6.2-11,9.2-23.3,9.2-37.1,0-20.9-6.9-38.4-20.7-52.5-13.6-14-30.6-21.1-50.8-21.1Z"/><path class="cls-2" d="m446.21,4.75h23.2v250.5h-23.2V4.75Z"/><path class="cls-3" d="m514.65,74.55h23.4v84.4c0,20.6,1.1,34.8,3.3,42.5,3.3,11.1,9.7,19.8,19,26.3,9.4,6.4,20.5,9.6,33.5,9.6s23.9-3.1,33-9.4c9-6.3,15.3-14.5,18.7-24.7,2.3-7,3.5-21.8,3.5-44.4v-84.4h23.8v88.8c0,24.9-2.9,43.7-8.7,56.3-5.8,12.6-14.6,22.5-26.2,29.6-11.7,7.1-26.3,10.7-43.9,10.7s-32.3-3.6-44.1-10.7-20.6-17.1-26.4-29.9c-5.8-12.8-8.7-32-8.7-57.7v-87h-.2Z"/><path class="cls-3" d="m904.45,74.55v180.7h-22.9v-31c-9.7,11.8-20.7,20.8-32.8,26.8-12.1,6-25.4,9-39.8,9-25.6,0-47.4-9.3-65.5-27.8-18.1-18.6-27.2-41.1-27.2-67.7s9.1-48.3,27.4-66.8,40.3-27.8,66-27.8c14.8,0,28.3,3.2,40.3,9.5s22.6,15.8,31.6,28.4v-33.2l22.9-.1h0Zm-93,17.7c-13,0-24.9,3.2-35.9,9.6s-19.7,15.3-26.2,26.8c-6.4,11.5-9.6,23.7-9.6,36.6s3.3,24.9,9.8,36.6c6.5,11.6,15.3,20.7,26.3,27.2s22.8,9.7,35.5,9.7,24.8-3.2,36.2-9.6c11.4-6.4,20.2-15.1,26.3-26.1,6.2-11,9.2-23.3,9.2-37.1,0-20.9-6.9-38.4-20.7-52.5s-30.7-21.2-50.9-21.2Z"/><path class="cls-3" d="m953.33,4.75h23.2v250.5h-23.2V4.75Z"/><path class="cls-2" d="m0,13.89h26.5l81,188.9L189.9,13.89h26.6l-106.4,244.4h-5.3L0,13.89Z"/></g><g id="Capa_3"><circle class="cls-1" cx="1131.1" cy="104.5" r="104.5"/><circle class="cls-5" cx="1131.1" cy="104.5" r="87.9"/><path class="cls-4" d="m1167.1,76.3c1.3,0,2.3-1,2.4-2.3.5-7.6-1.8-15.4-6.5-21.4-5.1-6.6-13.1-11-21.4-11.8v-6.1c0-.6,0-1.3-.4-1.7-.5-.7-1.6-.8-2.5-.8h-15.8c-.9,0-1.9.1-2.4.8-.4.5-.4,1.1-.4,1.7v6.2c-9.7,1.3-18.6,7.5-23.4,16s-5.1,19.3-1.2,28.3c3.3,7.4,9.3,13.4,15.8,18.3s13.6,9,20,14c4.5,3.5,8.7,7.6,10.9,12.9,1.6,4,1.9,8.7.1,12.6-1.8,4-6,5.9-10.3,6.5s-8.4-.8-11.3-4.1c-3.7-4.3-4.4-9.4-4.3-15.2,0-1.6-1.3-2.8-2.8-2.8h-18.4c-1.6,0-2.9,1.3-2.8,2.9l.2,4.4c.2,5.2.8,10.6,3.1,15.4,2.4,5.1,6.7,9.3,11.3,12.5,1.7,1.1,3.4,2.1,5.2,3,2.6,1.2,5.3,2,8.1,2.5v6.6c0,.6,0,1.3.4,1.7.5.6,1.4.6,2.1.6h16.6c.6,0,1.3,0,1.8-.5.4-.4.4-1,.4-1.6v-7.5c13.4-1,25-12.3,27.6-25.5s-3.4-27.4-14-35.7c-5.7-4.5-12.5-7.4-18.9-11-6.3-3.6-12.5-8.2-15.6-14.8-3.1-6.6-2.1-15.5,3.8-19.8,4.6-3.3,11.4-2.9,15.8.7,3.7,3,5.6,7.9,5.3,12.7-.1,1.4,1,2.7,2.4,2.7l19.1-.4Z"/><path class="cls-4" d="m1032.8,249.4h196.1c3.7,0,6.7-3,6.7-6.7v-22.9c0-3.7-3-6.7-6.7-6.7h-196.1c-3.7,0-6.7,3-6.7,6.7v22.9c0,3.7,3,6.7,6.7,6.7Z"/><path class="cls-5" d="m1053.1,249.4h155.7c3.3,0,6-2.7,6-6v-24.3c0-3.3-2.7-6-6-6h-155.7c-3.3,0-6,2.7-6,6v24.3c0,3.3,2.7,6,6,6Z"/><path class="cls-4" d="m1146.7,249.4h-31.7c-3,0-5.5-2.5-5.5-5.5v-25.3c0-3,2.5-5.5,5.5-5.5h31.7c3,0,5.5,2.5,5.5,5.5v25.3c0,3-2.4,5.5-5.5,5.5Z"/></g></g></svg>